<?xml version="1.0" encoding="UTF-8" standalone="no"?>
<svg
   version="1.1"
   id="Layer_1"
   x="0px"
   y="0px"
   width="867.50189"
   viewBox="0 0 867.50189 134.84645"
   enable-background="new 0 0 1024 572"
   xml:space="preserve"
   sodipodi:docname="polhemlogo.svg"
   height="134.84645"
   inkscape:version="1.4.2 (f4327f4, 2025-05-13)"
   xmlns:inkscape="http://www.inkscape.org/namespaces/inkscape"
   xmlns:sodipodi="http://sodipodi.sourceforge.net/DTD/sodipodi-0.dtd"
   xmlns="http://www.w3.org/2000/svg"
   xmlns:svg="http://www.w3.org/2000/svg"><defs
   id="defs6" /><sodipodi:namedview
   id="namedview6"
   pagecolor="#ffffff"
   bordercolor="#000000"
   borderopacity="0.25"
   inkscape:showpageshadow="2"
   inkscape:pageopacity="0.0"
   inkscape:pagecheckerboard="0"
   inkscape:deskcolor="#d1d1d1"
   inkscape:lockguides="false"
   showguides="true"
   inkscape:zoom="2.3199301"
   inkscape:cx="432.55614"
   inkscape:cy="66.596835"
   inkscape:window-width="3840"
   inkscape:window-height="1529"
   inkscape:window-x="-8"
   inkscape:window-y="-8"
   inkscape:window-maximized="1"
   inkscape:current-layer="Layer_1" />
<path
   fill="#020202"
   fill-rule="evenodd"
   opacity="1"
   stroke="none"
   d="m 741.60692,124.40984 c -10e-4,3.62488 -10e-4,6.75363 -10e-4,10.40121 -7.40289,0 -14.51441,0 -21.62592,0 -6.96789,0 -13.93579,0 -21.18042,0 0,-44.841699 0,-89.407279 0,-134.28713866 20.10285,0 40.18146,0 60.87348,0 7.6582,24.46343966 15.41546,49.24337966 23.47119,74.97671966 3.62897,-11.54807 6.99561,-22.15488 10.29364,-32.78293 4.08362,-13.1599 8.04132,-26.3597 12.27289,-39.4714197 0.4049,-1.25472 2.35663,-2.85494996 3.60382,-2.86666996 19.3042,-0.18161 38.61059,-0.12688 58.18732,-0.12688 0,44.72872966 0,89.28927966 0,134.20492866 -14.11609,0 -28.32166,0 -42.97419,0 0,-24.6077 0,-49.256099 0,-73.904479 -0.3385,-0.0596 -0.67694,-0.11917 -1.01544,-0.17877 -7.64374,24.60895 -15.28741,49.217919 -23.12658,74.456019 -10.74427,0 -21.69196,0.0861 -32.63318,-0.1409 -1.02881,-0.0213 -2.53937,-1.84854 -2.94587,-3.11896 -6.96832,-21.78118 -13.79486,-43.607749 -20.66394,-65.420679 -0.52673,-1.67255 -1.13928,-3.31805 -2.53473,-4.83655 0,20.86679 0,41.733609 -10e-4,63.096499 z"
   id="path1" />
<path
   fill="#020202"
   fill-rule="evenodd"
   opacity="1"
   stroke="none"
   d="m 145.1064,96.423451 c 0.0121,-22.98828 0.35872,-45.48437 -0.0782,-67.96529 -0.30711,-15.80377 11.75971,-28.64997966 28.47098,-28.35382966 26.81219,0.47513 53.63968,0.0292 80.46042,0.0986 16.70437,0.0432 27.80942,11.25697966 27.8237,27.88399966 0.0223,25.98805 0.0225,51.97615 -0.003,77.964179 -0.017,17.2753 -10.9762,28.56745 -28.26245,28.68284 -26.81977,0.17907 -53.64148,0.0549 -80.46225,0.10971 -15.15459,0.031 -28.49454,-11.05085 -27.90132,-27.92713 0.11692,-3.32681 -0.0254,-6.66272 -0.0479,-10.493069 m 70.14136,0.68716 c 4.99215,-0.0189 9.99197,0.12806 14.9743,-0.10293 5.04846,-0.23407 7.55411,-2.58048 7.58859,-7.36331 0.10794,-14.97583 0.0884,-29.9542 -0.0786,-44.92939 -0.0498,-4.4635 -2.66461,-7.09472 -7.24753,-7.1293 -11.31561,-0.0854 -22.63306,-0.12146 -33.94794,-0.004 -4.78842,0.0499 -7.5607,2.64353 -7.60885,7.40906 -0.14963,14.80923 -0.15085,29.62225 0.0165,44.43124 0.0602,5.3248 2.77942,7.62067 8.33093,7.69532 5.65692,0.0761 11.31586,0.002 17.97263,-0.007 m -0.49936,1.6e-4 c -6.15741,0.009 -11.81635,0.0831 -17.47327,0.007 -5.55151,-0.0746 -8.27078,-2.37052 -8.33093,-7.69532 -0.1673,-14.80899 -0.16608,-29.62201 -0.0165,-44.43124 0.0482,-4.76553 2.82043,-7.35913 7.60885,-7.40906 11.31488,-0.11795 22.63233,-0.0819 33.94794,0.004 4.58292,0.0346 7.19775,2.6658 7.24753,7.1293 0.16702,14.97519 0.18652,29.95356 0.0786,44.92939 -0.0345,4.78283 -2.54013,7.12924 -7.58859,7.36331 -4.98233,0.23099 -9.98215,0.084 -15.47366,0.10309 z"
   id="path2" />
<path
   fill="#020202"
   fill-rule="evenodd"
   opacity="1"
   stroke="none"
   d="m 606.00548,49.097341 c 1.91754,0.7836 3.79937,1.36893 5.68274,1.37417 22.79498,0.0633 45.59021,0.041 68.72558,0.041 0,11.29285 0,22.32944 0,33.74429 -24.71039,0 -49.29523,0 -74.1748,0 0,4.44422 0,8.51941 0,13.06626 26.87616,0 53.76098,0 80.9414,0 0,12.536159 0,24.613489 0,37.098809 -41.35455,0 -82.71453,0 -124.4176,0 0,-44.383569 0,-88.939359 0,-133.85906866 41.06293,0 82.26648,0 123.73145,0 0,11.99770966 0,24.09283966 0,36.71740966 -26.59534,0 -53.3003,0 -80.52387,0 0,4.12027 0,7.7348 0.0351,11.81708 z"
   id="path3" />
<path
   fill="#010101"
   fill-rule="evenodd"
   opacity="1"
   stroke="none"
   d="m 550.97764,36.430651 c 4.3e-4,32.94711 4.3e-4,65.394229 4.3e-4,98.127259 -14.47046,0 -28.56946,0 -43.30023,0 0,-15.66794 0,-31.53268 0,-47.700199 -16.18933,0 -31.75275,0 -47.77026,0 0,15.660399 0,31.394989 0,47.539339 -14.83222,0 -29.22242,0 -43.91871,0 0,-44.445459 0,-89.140439 0,-134.01592866 14.4481,0 28.73505,0 43.57325,0 0,15.77857966 0,31.63967966 0,47.72305966 16.12988,0 31.71002,0 47.78009,0 0,-15.84582 0,-31.58373 0,-47.60658966 14.71307,0 28.93915,0 43.63507,0 0,11.88573966 0,23.65937966 3.6e-4,35.93305966 z"
   id="path4" />
<path
   fill="#020202"
   fill-rule="evenodd"
   opacity="1"
   stroke="none"
   d="m 133.9984,29.504461 c -0.009,13.31941 0.0577,26.15028 -0.0352,38.97999 -0.14094,19.4614 -10.84718,30.31095 -30.29637,30.46473 -19.803872,0.15658 -39.609952,0.0346 -59.797032,0.0346 0,11.945559 0,23.545139 0,35.483579 -14.78105,0 -29.185716,0 -43.869798,0 C 0,90.032761 0,45.457171 0,0.44637134 c 1.465652,-0.0688 3.055641,-0.20741 4.645744,-0.20871 33.492194,-0.0273 66.992264,0.38623 100.473316,-0.23219 16.89668,-0.31209 29.97783,12.76518966 28.87932,29.49895966 m -57.795292,7.95976 c -10.73813,0 -21.47626,0 -32.18245,0 0,8.28766 0,16.0101 0,23.98215 13.70726,0 27.144,-0.0311 40.5804,0.0201 3.74313,0.0143 5.44397,-1.99429 5.81093,-5.41745 0.1764,-1.64569 0.0994,-3.32053 0.10443,-4.98227 0.0412,-13.60837 0.0389,-13.60837 -14.31331,-13.60254 m 0.48985,-6e-5 c 13.86232,-0.006 13.86467,-0.006 13.82346,13.6026 -0.005,1.66174 0.072,3.33658 -0.10443,4.98227 -0.36696,3.42316 -2.0678,5.4317 -5.81093,5.41745 -13.4364,-0.0512 -26.87314,-0.0201 -40.5804,-0.0201 0,-7.97205 0,-15.69449 0,-23.98215 10.70619,0 21.44432,0 32.6723,-6e-5 z"
   id="path5" />
<path
   fill="#020202"
   fill-rule="evenodd"
   opacity="1"
   stroke="none"
   d="m 404.99571,109.43605 c 0,8.62265 0,16.74622 0,25.12027 -37.46109,0 -74.50702,0 -111.80908,0 0,-44.668519 0,-89.086479 0,-133.93119866 14.38022,0 28.73892,0 43.47192,0 0,31.20127966 0,62.45707966 0,94.16398966 22.76981,0 45.17786,0 68.33719,0 0,5 0,9.573919 -3e-5,14.646939 z"
   id="path6" />
</svg>
