<svg version="1.1" id="Layer_1" xmlns="http://www.w3.org/2000/svg" xmlns:xlink="http://www.w3.org/1999/xlink" x="0px" y="0px"
	 width="100%" viewBox="0 0 1024 572" enable-background="new 0 0 1024 572" xml:space="preserve">
<path fill="#FEFEFE" opacity="1.000000" stroke="none"
	d="
M654.000000,573.000000
	C436.000000,573.000000 218.500000,573.000000 1.000000,573.000000
	C1.000000,382.333344 1.000000,191.666672 1.000000,1.000000
	C342.333344,1.000000 683.666687,1.000000 1025.000000,1.000000
	C1025.000000,191.666672 1025.000000,382.333344 1025.000000,573.000000
	C901.500000,573.000000 778.000000,573.000000 654.000000,573.000000
M820.856995,343.483215
	C820.856995,322.616425 820.856995,301.749603 820.856995,280.882812
	C822.252441,282.401306 822.864990,284.046814 823.391724,285.719360
	C830.260803,307.532288 837.087341,329.358856 844.055664,351.140045
	C844.462158,352.410461 845.972717,354.237671 847.001526,354.259003
	C857.942749,354.486053 868.890442,354.399902 879.634705,354.399902
	C887.473877,329.161804 895.117554,304.552826 902.761292,279.943878
	C903.099792,280.003479 903.438232,280.063049 903.776733,280.122650
	C903.776733,304.771027 903.776733,329.419434 903.776733,354.027130
	C918.429260,354.027130 932.634827,354.027130 946.750916,354.027130
	C946.750916,309.111481 946.750916,264.550934 946.750916,219.822205
	C927.174194,219.822205 907.867798,219.767471 888.563599,219.949081
	C887.316406,219.960800 885.364685,221.561035 884.959778,222.815750
	C880.728210,235.927475 876.770508,249.127274 872.686890,262.287170
	C869.388855,272.915222 866.022217,283.522034 862.393250,295.070099
	C854.337524,269.336761 846.580261,244.556824 838.922058,220.093384
	C818.230042,220.093384 798.151428,220.093384 778.048584,220.093384
	C778.048584,264.973236 778.048584,309.538818 778.048584,354.380524
	C785.293213,354.380524 792.261108,354.380524 799.229004,354.380524
	C806.340515,354.380524 813.452026,354.380524 820.854919,354.380524
	C820.854919,350.732941 820.854919,347.604187 820.856995,343.483215
M224.355240,316.491547
	C224.377991,319.823273 224.520294,323.159180 224.403366,326.485992
	C223.810150,343.362274 237.150101,354.444092 252.304688,354.413116
	C279.125458,354.358337 305.947174,354.482483 332.766937,354.303406
	C350.053192,354.188019 361.012421,342.895874 361.029388,325.620575
	C361.054871,299.632538 361.054688,273.644440 361.032379,247.656387
	C361.018097,231.029373 349.913055,219.815598 333.208679,219.772385
	C306.387939,219.702988 279.560455,220.148926 252.748260,219.673798
	C236.036987,219.377655 223.970169,232.223862 224.277283,248.027634
	C224.714157,270.508545 224.367538,293.004639 224.355240,316.491547
M685.219421,268.199036
	C685.219421,264.584534 685.219421,260.970001 685.219421,256.849731
	C712.442993,256.849731 739.147949,256.849731 765.743286,256.849731
	C765.743286,244.225159 765.743286,232.130035 765.743286,220.132324
	C724.278320,220.132324 683.074768,220.132324 642.011841,220.132324
	C642.011841,265.052032 642.011841,309.607819 642.011841,353.991394
	C683.714905,353.991394 725.074890,353.991394 766.429443,353.991394
	C766.429443,341.506073 766.429443,329.428741 766.429443,316.892578
	C739.249023,316.892578 712.364197,316.892578 685.488037,316.892578
	C685.488037,312.345734 685.488037,308.270538 685.488037,303.826324
	C710.367615,303.826324 734.952454,303.826324 759.662842,303.826324
	C759.662842,292.411469 759.662842,281.374878 759.662842,270.082031
	C736.527466,270.082031 713.732239,270.104279 690.937256,270.040985
	C689.053894,270.035736 687.172058,269.450409 685.219421,268.199036
M630.226318,255.500092
	C630.226318,243.726440 630.226318,231.952805 630.226318,220.067062
	C615.530396,220.067062 601.304321,220.067062 586.591248,220.067062
	C586.591248,236.089920 586.591248,251.827835 586.591248,267.673645
	C570.521179,267.673645 554.941040,267.673645 538.811157,267.673645
	C538.811157,251.590271 538.811157,235.729172 538.811157,219.950592
	C523.972961,219.950592 509.686005,219.950592 495.237915,219.950592
	C495.237915,264.826080 495.237915,309.521057 495.237915,353.966522
	C509.934204,353.966522 524.324402,353.966522 539.156616,353.966522
	C539.156616,337.822174 539.156616,322.087585 539.156616,306.427185
	C555.174133,306.427185 570.737549,306.427185 586.926880,306.427185
	C586.926880,322.594696 586.926880,338.459442 586.926880,354.127380
	C601.657654,354.127380 615.756653,354.127380 630.227112,354.127380
	C630.227112,321.394348 630.227112,288.947235 630.226318,255.500092
M213.251450,248.584854
	C214.345947,232.340164 201.264801,219.262878 184.368118,219.574966
	C150.887070,220.193390 117.387001,219.779892 83.894806,219.807159
	C82.304703,219.808456 80.714714,219.947052 79.249062,220.015869
	C79.249062,265.026672 79.249062,309.602264 79.249062,354.036865
	C93.933144,354.036865 108.337814,354.036865 123.118858,354.036865
	C123.118858,342.098419 123.118858,330.498840 123.118858,318.553284
	C143.305939,318.553284 163.112015,318.675232 182.915894,318.518646
	C202.365082,318.364868 213.071320,307.515320 213.212265,288.053925
	C213.305176,275.224213 213.238586,262.393341 213.251450,248.584854
M484.244781,328.506409
	C484.244781,323.932495 484.244781,319.358582 484.244781,314.358582
	C461.085449,314.358582 438.677399,314.358582 415.907593,314.358582
	C415.907593,282.651672 415.907593,251.395874 415.907593,220.194595
	C401.174591,220.194595 386.815887,220.194595 372.435669,220.194595
	C372.435669,265.039307 372.435669,309.457275 372.435669,354.125793
	C409.737732,354.125793 446.783661,354.125793 484.244751,354.125793
	C484.244751,345.751740 484.244751,337.628174 484.244781,328.506409
z"/>
<path fill="#020202" opacity="1.000000" stroke="none"
	d="
M820.855957,343.979309
	C820.854919,347.604187 820.854919,350.732941 820.854919,354.380524
	C813.452026,354.380524 806.340515,354.380524 799.229004,354.380524
	C792.261108,354.380524 785.293213,354.380524 778.048584,354.380524
	C778.048584,309.538818 778.048584,264.973236 778.048584,220.093384
	C798.151428,220.093384 818.230042,220.093384 838.922058,220.093384
	C846.580261,244.556824 854.337524,269.336761 862.393250,295.070099
	C866.022217,283.522034 869.388855,272.915222 872.686890,262.287170
	C876.770508,249.127274 880.728210,235.927475 884.959778,222.815750
	C885.364685,221.561035 887.316406,219.960800 888.563599,219.949081
	C907.867798,219.767471 927.174194,219.822205 946.750916,219.822205
	C946.750916,264.550934 946.750916,309.111481 946.750916,354.027130
	C932.634827,354.027130 918.429260,354.027130 903.776733,354.027130
	C903.776733,329.419434 903.776733,304.771027 903.776733,280.122650
	C903.438232,280.063049 903.099792,280.003479 902.761292,279.943878
	C895.117554,304.552826 887.473877,329.161804 879.634705,354.399902
	C868.890442,354.399902 857.942749,354.486053 847.001526,354.259003
	C845.972717,354.237671 844.462158,352.410461 844.055664,351.140045
	C837.087341,329.358856 830.260803,307.532288 823.391724,285.719360
	C822.864990,284.046814 822.252441,282.401306 820.856995,280.882812
	C820.856995,301.749603 820.856995,322.616425 820.855957,343.979309
z"/>
<path fill="#020202" opacity="1.000000" stroke="none"
	d="
M224.355438,315.992920
	C224.367538,293.004639 224.714157,270.508545 224.277283,248.027634
	C223.970169,232.223862 236.036987,219.377655 252.748260,219.673798
	C279.560455,220.148926 306.387939,219.702988 333.208679,219.772385
	C349.913055,219.815598 361.018097,231.029373 361.032379,247.656387
	C361.054688,273.644440 361.054871,299.632538 361.029388,325.620575
	C361.012421,342.895874 350.053192,354.188019 332.766937,354.303406
	C305.947174,354.482483 279.125458,354.358337 252.304688,354.413116
	C237.150101,354.444092 223.810150,343.362274 224.403366,326.485992
	C224.520294,323.159180 224.377991,319.823273 224.355438,315.992920
M294.496796,316.680084
	C299.488953,316.661194 304.488770,316.808136 309.471100,316.577148
	C314.519562,316.343079 317.025208,313.996674 317.059692,309.213837
	C317.167633,294.238007 317.148132,279.259644 316.981110,264.284454
	C316.931335,259.820953 314.316498,257.189728 309.733582,257.155151
	C298.417969,257.069763 287.100525,257.033691 275.785645,257.151642
	C270.997223,257.201569 268.224945,259.795166 268.176788,264.560699
	C268.027161,279.369934 268.025940,294.182953 268.193237,308.991943
	C268.253387,314.316742 270.972656,316.612610 276.524170,316.687256
	C282.181091,316.763336 287.840027,316.688873 294.496796,316.680084
z"/>
<path fill="#020202" opacity="1.000000" stroke="none"
	d="
M685.254517,268.666809
	C687.172058,269.450409 689.053894,270.035736 690.937256,270.040985
	C713.732239,270.104279 736.527466,270.082031 759.662842,270.082031
	C759.662842,281.374878 759.662842,292.411469 759.662842,303.826324
	C734.952454,303.826324 710.367615,303.826324 685.488037,303.826324
	C685.488037,308.270538 685.488037,312.345734 685.488037,316.892578
	C712.364197,316.892578 739.249023,316.892578 766.429443,316.892578
	C766.429443,329.428741 766.429443,341.506073 766.429443,353.991394
	C725.074890,353.991394 683.714905,353.991394 642.011841,353.991394
	C642.011841,309.607819 642.011841,265.052032 642.011841,220.132324
	C683.074768,220.132324 724.278320,220.132324 765.743286,220.132324
	C765.743286,232.130035 765.743286,244.225159 765.743286,256.849731
	C739.147949,256.849731 712.442993,256.849731 685.219421,256.849731
	C685.219421,260.970001 685.219421,264.584534 685.254517,268.666809
z"/>
<path fill="#010101" opacity="1.000000" stroke="none"
	d="
M630.226685,256.000122
	C630.227112,288.947235 630.227112,321.394348 630.227112,354.127380
	C615.756653,354.127380 601.657654,354.127380 586.926880,354.127380
	C586.926880,338.459442 586.926880,322.594696 586.926880,306.427185
	C570.737549,306.427185 555.174133,306.427185 539.156616,306.427185
	C539.156616,322.087585 539.156616,337.822174 539.156616,353.966522
	C524.324402,353.966522 509.934204,353.966522 495.237915,353.966522
	C495.237915,309.521057 495.237915,264.826080 495.237915,219.950592
	C509.686005,219.950592 523.972961,219.950592 538.811157,219.950592
	C538.811157,235.729172 538.811157,251.590271 538.811157,267.673645
	C554.941040,267.673645 570.521179,267.673645 586.591248,267.673645
	C586.591248,251.827835 586.591248,236.089920 586.591248,220.067062
	C601.304321,220.067062 615.530396,220.067062 630.226318,220.067062
	C630.226318,231.952805 630.226318,243.726440 630.226685,256.000122
z"/>
<path fill="#020202" opacity="1.000000" stroke="none"
	d="
M213.247437,249.073929
	C213.238586,262.393341 213.305176,275.224213 213.212265,288.053925
	C213.071320,307.515320 202.365082,318.364868 182.915894,318.518646
	C163.112015,318.675232 143.305939,318.553284 123.118858,318.553284
	C123.118858,330.498840 123.118858,342.098419 123.118858,354.036865
	C108.337814,354.036865 93.933144,354.036865 79.249062,354.036865
	C79.249062,309.602264 79.249062,265.026672 79.249062,220.015869
	C80.714714,219.947052 82.304703,219.808456 83.894806,219.807159
	C117.387001,219.779892 150.887070,220.193390 184.368118,219.574966
	C201.264801,219.262878 214.345947,232.340164 213.247437,249.073929
M155.452148,257.033691
	C144.714020,257.033691 133.975891,257.033691 123.269699,257.033691
	C123.269699,265.321350 123.269699,273.043793 123.269699,281.015839
	C136.976959,281.015839 150.413696,280.984711 163.850098,281.035950
	C167.593231,281.050201 169.294067,279.041656 169.661026,275.618500
	C169.837433,273.972809 169.760422,272.297974 169.765457,270.636230
	C169.806671,257.027863 169.804321,257.027863 155.452148,257.033691
z"/>
<path fill="#020202" opacity="1.000000" stroke="none"
	d="
M484.244751,329.005524
	C484.244751,337.628174 484.244751,345.751740 484.244751,354.125793
	C446.783661,354.125793 409.737732,354.125793 372.435669,354.125793
	C372.435669,309.457275 372.435669,265.039307 372.435669,220.194595
	C386.815887,220.194595 401.174591,220.194595 415.907593,220.194595
	C415.907593,251.395874 415.907593,282.651672 415.907593,314.358582
	C438.677399,314.358582 461.085449,314.358582 484.244781,314.358582
	C484.244781,319.358582 484.244781,323.932495 484.244751,329.005524
z"/>
<path fill="#FBFBFB" opacity="1.000000" stroke="none"
	d="
M293.997437,316.680237
	C287.840027,316.688873 282.181091,316.763336 276.524170,316.687256
	C270.972656,316.612610 268.253387,314.316742 268.193237,308.991943
	C268.025940,294.182953 268.027161,279.369934 268.176788,264.560699
	C268.224945,259.795166 270.997223,257.201569 275.785645,257.151642
	C287.100525,257.033691 298.417969,257.069763 309.733582,257.155151
	C314.316498,257.189728 316.931335,259.820953 316.981110,264.284454
	C317.148132,279.259644 317.167633,294.238007 317.059692,309.213837
	C317.025208,313.996674 314.519562,316.343079 309.471100,316.577148
	C304.488770,316.808136 299.488953,316.661194 293.997437,316.680237
z"/>
<path fill="#FCFCFC" opacity="1.000000" stroke="none"
	d="
M155.942001,257.033630
	C169.804321,257.027863 169.806671,257.027863 169.765457,270.636230
	C169.760422,272.297974 169.837433,273.972809 169.661026,275.618500
	C169.294067,279.041656 167.593231,281.050201 163.850098,281.035950
	C150.413696,280.984711 136.976959,281.015839 123.269699,281.015839
	C123.269699,273.043793 123.269699,265.321350 123.269699,257.033691
	C133.975891,257.033691 144.714020,257.033691 155.942001,257.033630
z"/>
</svg>